<svg xmlns="http://www.w3.org/2000/svg" xmlns:xlink="http://www.w3.org/1999/xlink" viewBox="0 0 1617.6 386.8">
  <defs>
    <style>
      .cls-1 {
        fill: #707070;
      }

      .cls-2 {
        clip-path: url(#clip-path);
      }

      .cls-3 {
        fill: url(#linear-gradient);
      }
    </style>
    <clipPath id="clip-path">
      <path id="Path_1" data-name="Path 1" class="cls-1" d="M336.4-332q12.4,2.4,18.6,8.4a18.894,18.894,0,0,1,6.2,14q0,13.2-7.4,19.2t-23.4,4.8q-36-2.8-56.2-3.8t-53-1.4q-14.8,73.6-27.2,148-4.4,27.2-9.2,63T178.4-22q-.8,11.6-9.6,17.8T147.6,2q-13.2,0-20.4-6.4T120-21.2q0-9.6,3-31.8t7-46.6q4.4-24.4,6.8-42.4,4.4-30.4,10-60.4T158-259.2q1.2-6,2.8-13.8t3.6-17.4q-39.2,1.2-61.6,6.4T71-269.4q-9.4,9.4-9.4,24.2a47.233,47.233,0,0,0,8,26,11.9,11.9,0,0,1,1.6,6q0,7.6-9,14.2t-18.6,6.6a16.011,16.011,0,0,1-11.2-4q-8-6.8-13.2-19.4A74.4,74.4,0,0,1,14-244.4q0-34,22.2-54.6t67.6-30.2q45.4-9.6,116.6-9.6,44,0,70.2,1.6A387.4,387.4,0,0,1,336.4-332ZM309.2,2q-24.8,0-39.6-18T254.8-63.2a130.038,130.038,0,0,1,14.8-60.6q14.8-28.6,39.4-46t52.2-17.4q8.8,0,11.8,3.4t5,12.2a93.918,93.918,0,0,1,17.6-1.6q19.6,0,19.6,14,0,8.4-6,40-9.2,46-9.2,64,0,6,3,9.6a9.675,9.675,0,0,0,7.8,3.6q7.6,0,18.4-9.8t29.2-31.8q4.8-5.6,10.8-5.6a9.243,9.243,0,0,1,8.2,4.8q3,4.8,3,13.2,0,16-7.6,24.8A201.5,201.5,0,0,1,438-12Q419.6,2,402.4,2q-13.2,0-24.2-9T361.6-31.6Q340.8,2,309.2,2Zm14.4-40.4q8.8,0,16.8-10.4T352-76.4L366.8-150q-16.8.4-31,12.6t-22.6,32.2a108.378,108.378,0,0,0-8.4,42.4q0,12.4,5,18.4T323.6-38.4ZM522.4,10.8q-20.8,0-31.8-9.6t-11-21.6a24.6,24.6,0,0,1,7.6-18q7.6-7.6,22.4-7.6a87.772,87.772,0,0,1,12.2,1q7,1,10.6,1.4a51.5,51.5,0,0,0-4.6-19.6A97.923,97.923,0,0,0,517.2-81q-6.4-8.6-12-15-12.4,23.6-24.6,39.2A292.986,292.986,0,0,1,454-27.2Q446.8-20,438.8-20a13.133,13.133,0,0,1-10.4-4.6,16.756,16.756,0,0,1-4-11.4A22.8,22.8,0,0,1,430-50.8l5.2-6.4q22-27.2,33.2-44.8,6.8-11.6,16-31t18-40.2q7.6-17.6,31.6-17.6,11.2,0,15.6,2t4.4,6.4a29.441,29.441,0,0,1-1.6,7.6,57.807,57.807,0,0,1-4.4,10.4q-7.2,14.4-7.2,24.4,0,6,4.2,13.2a149.816,149.816,0,0,0,13,18Q570.8-92,577.4-80.2A51.963,51.963,0,0,1,584-54.4a108.362,108.362,0,0,1-.8,11.2q19.6-7.6,46-40.4,4.8-5.6,10.8-5.6a9.243,9.243,0,0,1,8.2,4.8q3,4.8,3,13.2,0,15.2-7.6,24.8-20,24.8-38.2,33.8t-45,9.8Q544.4,10.8,522.4,10.8ZM788.8-41.6q16.4,3.2,16.4,18,0,10-9,17.8T770.4,2q-28.8,0-47-17.8T705.2-62.4q0-15.6,16-22.4,17.6-7.6,25.2-16.2t7.6-21q0-7.2-3-10.8a9.274,9.274,0,0,0-7.4-3.6q-10.8,0-23.8,15.6T695.6-80.6A288.006,288.006,0,0,0,678-30q-4.4,18.8-10.2,25.4T649.6,2q-12.4,0-18.2-9t-7.8-27.8q-2-18.8-2-55.2,0-61.6,12.6-128.4t37.2-112.2Q696-376,730.4-376q18.4,0,29.8,15.8t11.4,41q0,40.4-23.6,83.8T671.2-134Q670-113.2,670-91.2q19.2-50,44-72.6t46.4-22.6q20,0,32.2,13.6t12.2,33.6a76.229,76.229,0,0,1-11.2,40.4Q782.4-80.4,755.2-66q2.4,12,9.8,16.6T788.8-41.6ZM722-336.4q-7.2,0-16,20.6t-17,55.6A742.5,742.5,0,0,0,675.6-184a286.25,286.25,0,0,0,41-63.6Q732.8-282,732.8-310q0-12.8-2.8-19.6T722-336.4ZM1223.6-89.2a9.243,9.243,0,0,1,8.2,4.8q3,4.8,3,13.2,0,15.6-7.6,24.8-22.4,26.8-43.4,37.6T1133.2,2a135.056,135.056,0,0,1-38.4-5.2A450.412,450.412,0,0,1,1052-18.8a391.738,391.738,0,0,0-44-16.4Q987.6,2,946.8,2,924.4,2,911-8.2T897.6-34.4q0-19.6,18.8-32.6t50-13h5.2l7.2-116.4q2.4-40,14.4-66a130.421,130.421,0,0,1,33.2-44.4,126.755,126.755,0,0,1,42-24.2,151.257,151.257,0,0,1,50-8.2q43.2,0,66.4,22.4t23.2,58.4q0,24.4-8.8,39.4t-24.4,15q-11.2,0-17.6-5.4t-6.4-15.4a96.7,96.7,0,0,1,1.6-13.2,96.591,96.591,0,0,0,2.4-20q0-16.8-9.8-26.6t-29.8-9.8q-35.2,0-54.4,23t-24.4,72.2l-9.2,90.8a282.439,282.439,0,0,1-5.2,33.2q25.6,4.4,64,14,22.4,5.6,34.4,8a109.661,109.661,0,0,0,21.2,2.4q23.2,0,39.8-7.8t31.4-25Q1217.6-89.2,1223.6-89.2Zm31.2-123.6q-16.8,0-25.2-7.8t-8.4-21.8q0-14,11-23.4t27.4-9.4q14.8,0,24,7.2t9.2,20.4q0,16-10.4,25.4T1254.8-212.8ZM1251.6,2q-26,0-37.8-18.4T1202-65.2q0-18,4.6-46.2a431.385,431.385,0,0,1,11.8-52.6q3.6-12.8,9.6-17.6t19.2-4.8q20.4,0,20.4,13.6,0,10-7.6,46.4-9.6,44-9.6,59.6,0,12,3.2,18.4t10.8,6.4q7.2,0,18-10t28.8-31.6q4.8-5.6,10.8-5.6a9.243,9.243,0,0,1,8.2,4.8q3,4.8,3,13.2,0,16-7.6,24.8Q1286,2,1251.6,2Zm123.6,8.8q-20.8,0-31.8-9.6t-11-21.6a24.6,24.6,0,0,1,7.6-18q7.6-7.6,22.4-7.6a87.77,87.77,0,0,1,12.2,1q7,1,10.6,1.4a51.5,51.5,0,0,0-4.6-19.6A97.916,97.916,0,0,0,1370-81q-6.4-8.6-12-15-12.4,23.6-24.6,39.2a293,293,0,0,1-26.6,29.6q-7.2,7.2-15.2,7.2a13.133,13.133,0,0,1-10.4-4.6,16.756,16.756,0,0,1-4-11.4,22.8,22.8,0,0,1,5.6-14.8l5.2-6.4q22-27.2,33.2-44.8,6.8-11.6,16-31t18-40.2q7.6-17.6,31.6-17.6,11.2,0,15.6,2t4.4,6.4a29.443,29.443,0,0,1-1.6,7.6,57.8,57.8,0,0,1-4.4,10.4q-7.2,14.4-7.2,24.4,0,6,4.2,13.2a149.819,149.819,0,0,0,13,18q12.8,16.8,19.4,28.6a51.963,51.963,0,0,1,6.6,25.8,108.366,108.366,0,0,1-.8,11.2q19.6-7.6,46-40.4,4.8-5.6,10.8-5.6a9.243,9.243,0,0,1,8.2,4.8q3,4.8,3,13.2,0,15.2-7.6,24.8-20,24.8-38.2,33.8t-45,9.8Q1397.2,10.8,1375.2,10.8Zm162.4-159.2q-.8,20-.8,31.2,0,28.8,3,45t10,23.2q7,7,19.4,7,6.4,0,15.2-4a63.488,63.488,0,0,0,16-10.4q4.4-4,8.8-4,4.8,0,7.8,5.4a26.391,26.391,0,0,1,3,13,38.135,38.135,0,0,1-3,14.8,29.776,29.776,0,0,1-9,12Q1587.2,2,1560.8,2q-38,0-55.6-31.8t-17.6-83q0-17.6,1.2-35.6h-15.6q-12,0-16.2-4.4t-4.2-14q0-22.4,18-22.4h22.8q6.8-44,20.8-80.4t33.8-58q19.8-21.6,42.6-21.6,16.8,0,26.4,14.8t9.6,37.2q0,62-52,108h44.8q6.4,0,9.2,2.8t2.8,10.4q0,27.6-45.2,27.6ZM1580-310.8q-6,0-13.4,15t-14,41.6a557.631,557.631,0,0,0-11,59q23.6-20.4,35.4-45.8t11.8-46.2Q1588.8-310.8,1580-310.8Z" transform="translate(144 710)"/>
    </clipPath>
    <linearGradient id="linear-gradient" x2="1" y2="1" gradientUnits="objectBoundingBox">
      <stop offset="0" stop-color="#ff5e62"/>
      <stop offset="1" stop-color="#f96"/>
    </linearGradient>
  </defs>
  <g id="Mask_Group_1" data-name="Mask Group 1" class="cls-2" transform="translate(-158 -334)">
    <rect id="Rectangle_1" data-name="Rectangle 1" class="cls-3" width="1618" height="387" transform="translate(158 334)"/>
  </g>
</svg>
